# xmcd
#
# Track frame offsets:
#	150
#	12114
#	30120
#	48414
#	64095
#	77124
#	94088
#	109667
#	131385
#	148554
#	168005
#	179507
#	193330
#	206850
#	229606
#
# Disc length: 3348 seconds
#
# Revision: 1
# Processed by: cddbd v1.5.2PL0 Copyright (c) Steve Scherf et al.
# Submitted via: audiograbber 1.83.01
#
DISCID=c10d120f
DTITLE=Jem Cooke - I am Jem Cooke
DYEAR=1900
DGENRE=Soul
TTITLE0=Little Ray
TTITLE1=Playing In Dirt
TTITLE2=Fallen
TTITLE3=You And Me
TTITLE4=Let Me
TTITLE5=Miss You
TTITLE6=Party For One
TTITLE7=City Life
TTITLE8=Disco
TTITLE9=I Was In Love
TTITLE10=Step One
TTITLE11=Tarantino
TTITLE12=Move On Over
TTITLE13=Hula
TTITLE14=Little Ray (Remix)
EXTD=
EXTT0=
EXTT1=
EXTT2=
EXTT3=
EXTT4=
EXTT5=
EXTT6=
EXTT7=
EXTT8=
EXTT9=
EXTT10=
EXTT11=
EXTT12=
EXTT13=
EXTT14=
PLAYORDER=
